<svg xmlns="http://www.w3.org/2000/svg" xmlns:xlink="http://www.w3.org/1999/xlink" width="458.07" height="528.937" viewBox="0 0 458.07 528.937">
  <defs>
    <linearGradient id="linear-gradient" x1="1.22" y1="1.16" x2="0.174" y2="1.16" gradientUnits="objectBoundingBox">
      <stop offset="0" stop-color="maroon"/>
      <stop offset="0.011" stop-color="#860000"/>
      <stop offset="0.075" stop-color="#a60000"/>
      <stop offset="0.148" stop-color="#c20000"/>
      <stop offset="0.23" stop-color="#d80000"/>
      <stop offset="0.324" stop-color="#e90000"/>
      <stop offset="0.439" stop-color="#f60000"/>
      <stop offset="0.597" stop-color="#fd0000"/>
      <stop offset="1" stop-color="red"/>
    </linearGradient>
    <linearGradient id="linear-gradient-2" x1="0.237" y1="1.191" x2="1.284" y2="1.191" xlink:href="#linear-gradient"/>
    <linearGradient id="linear-gradient-3" x1="0.5" x2="0.5" y2="1" gradientUnits="objectBoundingBox">
      <stop offset="0" stop-color="#fff"/>
      <stop offset="1" stop-color="#b3b3b3"/>
    </linearGradient>
    <linearGradient id="linear-gradient-4" x1="0" y1="0.5" x2="1" y2="0.5" xlink:href="#linear-gradient-3"/>
    <linearGradient id="linear-gradient-6" x1="0.65" y1="0.141" x2="0.65" y2="1.007" xlink:href="#linear-gradient"/>
  </defs>
  <g id="cube" transform="translate(-282.965 -64.836)">
    <g id="Group_9" data-name="Group 9">
      <path id="Path_6" data-name="Path 6" d="M741.035,262.063,512,394.3,415.2,338.41v41.31L512,435.606,741.035,303.373Z" fill="url(#linear-gradient)"/>
      <path id="Path_7" data-name="Path 7" d="M741.035,220.754,512,352.987,415.2,297.1v41.31L512,394.3,741.035,262.063Z" fill="url(#linear-gradient-2)"/>
    </g>
    <g id="Group_10" data-name="Group 10">
      <path id="Path_8" data-name="Path 8" d="M512,116.7,327.879,223,512,329.3,696.122,223Z" fill="url(#linear-gradient-3)"/>
      <path id="Path_9" data-name="Path 9" d="M327.879,223l68.378,39.478V392.465L512,459.289v82.62l-184.122-106.3Z" fill="url(#linear-gradient-4)"/>
      <path id="Path_10" data-name="Path 10" d="M512,541.909l184.122-106.3v-82.62L512,459.289Z" fill="url(#linear-gradient-4)"/>
    </g>
    <path id="Path_11" data-name="Path 11" d="M717.352,340.73V447.863L512,566.426,306.648,447.863V210.742L512,92.183,717.352,210.742h0l23.683-13.673h0L512,64.836,282.965,197.069V461.536L512,593.773,741.035,461.536V327.056Z" fill="url(#linear-gradient-6)"/>
  </g>
</svg>
